<svg width="36" height="36" viewBox="0 0 36 36" fill="none" xmlns="http://www.w3.org/2000/svg">
<path d="M36 27C36 28.0609 35.5786 29.0783 34.8284 29.8284C34.0783 30.5786 33.0609 31 32 31H4C2.93913 31 1.92172 30.5786 1.17157 29.8284C0.421427 29.0783 0 28.0609 0 27V9C0 7.93913 0.421427 6.92172 1.17157 6.17157C1.92172 5.42143 2.93913 5 4 5H32C33.0609 5 34.0783 5.42143 34.8284 6.17157C35.5786 6.92172 36 7.93913 36 9V27Z" fill="#ED1C23"/>
<path d="M0 13H36V23H0V13Z" fill="#EEEEEE"/>
<path d="M16.993 13.204C16.81 13.407 16.378 13.69 16.28 13.883C16.182 14.077 15.867 14.275 15.699 14.347C15.53 14.419 15.678 14.535 15.862 14.42C16.047 14.305 16.2 14.31 16.308 14.206C16.416 14.102 16.572 14.201 16.42 14.272C16.269 14.344 16.211 14.464 16.145 14.55C16.079 14.637 16.046 14.68 15.893 14.683C15.74 14.686 15.604 14.723 15.497 14.879C15.389 15.034 15.257 15.216 15.2 15.302C15.142 15.388 15.186 15.456 15.329 15.35C15.471 15.244 15.631 15.156 15.702 15.274C15.773 15.391 15.77 15.447 15.58 15.523C15.175 15.685 15.058 15.781 14.985 15.944C14.912 16.108 14.955 16.158 14.702 16.239C14.448 16.321 14.038 16.62 13.77 16.821C13.502 17.023 13.655 17.033 13.86 17.023C14.174 17.007 14.578 16.794 14.784 16.884C14.846 17.002 14.918 17.153 15.014 17.262C14.683 17.728 14.628 17.908 14.288 17.916C13.947 17.924 13.734 18.269 13.576 18.442C13.418 18.616 13.281 18.78 13.117 18.852C12.973 18.915 12.941 18.967 13.053 19.023C13.165 19.081 13.264 18.943 13.367 18.991C13.47 19.04 13.538 19.022 13.697 18.916C13.856 18.81 14.024 18.67 14.278 18.639C14.4 18.781 14.462 18.857 14.6 18.93C14.36 19.258 14 19.513 13.687 19.622C13.374 19.73 13.326 19.85 13.102 20.136C12.879 20.422 12.889 20.515 12.66 20.52C12.43 20.526 12.44 20.577 12.561 20.667C12.682 20.758 12.775 20.714 12.954 20.753C13.134 20.791 13.364 20.829 13.597 20.577C13.83 20.324 14.401 19.884 14.885 19.927C15.115 19.948 15.278 19.995 15.003 20.256C14.728 20.517 14.331 20.717 14.061 20.77C13.536 20.876 13.31 21.085 13.157 21.079C13.003 21.073 12.861 21.179 13.094 21.318C13.327 21.458 13.404 21.491 13.665 21.374C13.926 21.258 14.355 21.061 14.525 21.016C14.694 20.969 14.82 20.898 14.94 20.93C15.06 20.961 15.153 20.924 15.287 20.837C15.421 20.749 15.617 20.737 15.783 20.58C15.977 20.397 16.183 20.554 16.312 20.661C16.442 20.769 16.698 21.197 16.467 21.492C16.235 21.786 15.978 22.098 15.896 22.253C15.814 22.408 15.768 22.418 15.671 22.453C15.4137 22.5506 15.1705 22.6821 14.948 22.844C14.856 22.922 14.891 22.947 15.019 22.97C15.147 22.993 15.164 22.967 15.28 22.871C15.397 22.775 15.539 22.628 15.828 22.637C15.981 22.642 16.107 22.555 16.24 22.415C16.374 22.276 16.66 22.151 16.805 22.181C16.95 22.212 16.992 22.178 17.076 22.115C17.159 22.054 17.227 22.027 17.357 22.135C17.487 22.243 17.597 22.223 17.732 22.144C17.867 22.064 18.012 22.095 18.048 22.18C18.083 22.264 18.102 22.34 18.223 22.423C18.344 22.505 18.775 22.76 18.913 22.834C19.05 22.907 19.141 22.769 19.037 22.678C18.933 22.587 18.88 22.511 18.896 22.434C18.912 22.357 18.991 22.326 19.225 22.358C19.592 22.41 20.117 22.671 20.307 22.785C20.498 22.901 20.67 22.999 20.823 22.995C20.977 22.992 21.026 22.956 20.888 22.831C20.748 22.707 20.579 22.72 20.516 22.593C20.409 22.374 20.224 22.532 20.127 22.312C20.058 22.155 19.962 22.136 19.843 22.147C19.724 22.158 19.565 22.051 19.455 21.883C19.067 21.296 18.962 20.771 19.089 20.376C19.217 19.982 19.588 19.863 19.805 20.029C20.022 20.195 20.278 20.299 20.389 20.288C20.5098 20.2687 20.6335 20.2932 20.738 20.357C20.885 20.439 21.134 20.493 21.437 20.367C21.74 20.241 21.847 20.34 22.04 20.346C22.203 20.35 22.398 20.38 22.53 20.488C22.659 20.596 22.857 20.668 23.155 20.713C23.453 20.758 23.656 20.676 23.415 20.537C23.172 20.398 22.968 20.317 22.879 20.191C22.792 20.065 22.663 20.043 22.536 20.045C22.409 20.048 22.202 19.959 22.029 19.785C21.855 19.609 21.717 19.578 21.582 19.598C21.5115 19.6102 21.4391 19.6042 21.3717 19.5803C21.3043 19.5565 21.2441 19.5158 21.197 19.462C21.328 19.306 21.469 19.014 21.593 18.926C21.6619 18.918 21.7317 18.9245 21.798 18.945C21.8643 18.9655 21.9256 18.9995 21.978 19.045C22.083 19.136 22.227 19.116 22.33 19.114C22.4484 19.1182 22.5637 19.1537 22.664 19.217C22.751 19.275 22.887 19.272 23.013 19.218C23.138 19.165 23.111 19.097 22.957 19.007C22.801 18.917 22.714 18.859 22.661 18.774C22.61 18.691 22.565 18.649 22.378 18.653C22.191 18.657 22.102 18.566 21.955 18.407C21.623 18.049 21.403 18.028 21.189 18.057C20.977 18.087 20.766 18.126 20.59 17.875C20.808 17.768 20.986 18.014 21.269 17.801C21.42 17.687 21.52 17.659 21.71 17.723C21.899 17.787 22.12 17.765 22.177 17.721C22.237 17.677 22.313 17.607 22.406 17.597C22.497 17.586 22.486 17.463 22.35 17.479C22.087 17.51 22.041 17.349 21.787 17.398C21.533 17.446 21.44 17.406 21.275 17.29C21.11 17.174 20.972 17.075 20.489 17.154C20.511 17 20.498 16.839 20.736 16.791C20.916 16.898 21.085 16.877 21.23 16.874C21.375 16.871 21.869 16.868 22.013 16.891C22.16 16.913 22.191 16.844 21.975 16.73C21.7762 16.6367 21.562 16.5807 21.343 16.565C21.232 16.559 21.178 16.484 21.107 16.34C21.036 16.197 20.822 16.083 20.506 16.081C20.2922 16.0772 20.0875 15.9937 19.932 15.847C19.801 15.731 19.681 15.639 19.527 15.617C19.373 15.595 19.234 15.487 19.3 15.358C19.365 15.229 19.619 15.173 19.801 15.287C19.981 15.403 20.093 15.408 20.201 15.346C20.31 15.284 20.379 15.257 20.542 15.313C20.704 15.369 20.867 15.365 20.615 15.175C20.252 14.902 19.896 15.012 19.774 14.862C19.652 14.711 19.551 14.773 19.467 14.809C19.382 14.845 19.23 14.761 19.412 14.665C19.547 14.594 19.682 14.557 19.803 14.614C19.8594 14.6382 19.9204 14.65 19.9818 14.6486C20.0432 14.6472 20.1036 14.6327 20.159 14.606C20.253 14.561 20.344 14.475 20.062 14.421C19.78 14.367 19.351 14.198 19.185 14.048C19.1217 13.9859 19.0445 13.9398 18.9598 13.9135C18.875 13.8872 18.7853 13.8816 18.698 13.897C18.554 13.926 18.435 13.945 18.185 13.789C17.935 13.633 17.608 13.478 17.38 13.16C17.156 12.852 17.135 13.049 16.993 13.204Z" fill="#008000"/>
<path d="M16.152 15.017C15.987 14.997 15.853 15.074 15.939 15.187C16.024 15.3 16.068 15.229 16.175 15.176C16.282 15.122 16.382 15.043 16.152 15.017ZM16.607 15.377C16.456 15.45 16.31 15.537 16.263 15.691C16.215 15.845 16.221 15.981 16.364 15.944C16.58 15.888 16.594 15.633 16.752 15.604C16.7 15.528 16.685 15.426 16.607 15.377ZM16.872 15.243C16.886 15.306 16.907 15.408 16.959 15.458C17.098 15.391 17.452 15.256 17.586 15.227C17.5951 15.1542 17.58 15.0804 17.543 15.017C17.352 15.035 17.073 15.104 16.872 15.243ZM18.063 15.844C18.065 15.938 18.105 16.175 18.124 16.269C18.21 16.31 18.321 16.341 18.407 16.365C18.4574 16.2463 18.481 16.1179 18.476 15.989C18.32 15.89 18.181 15.783 18.063 15.844ZM17.76 15.979C17.77 16.055 17.773 16.166 17.783 16.234C17.672 16.236 17.495 16.3 17.385 16.336C17.275 16.373 17.143 16.171 17.337 16.091C17.531 16.01 17.658 15.99 17.76 15.979ZM15.037 16.745C15.238 16.638 15.343 16.705 15.528 16.649C15.615 16.732 15.719 16.832 15.789 16.932C15.682 17.113 15.356 16.993 15.247 17.072C15.1575 16.9769 15.0863 16.866 15.037 16.745ZM15.858 16.539C15.911 16.649 15.965 16.741 16.008 16.791C16.161 16.805 16.219 16.719 16.285 16.615C16.351 16.511 16.348 16.384 16.178 16.396C16.008 16.409 15.915 16.445 15.858 16.539ZM14.531 18.5C14.576 18.609 14.704 18.649 14.74 18.734C14.882 18.646 14.951 18.653 15.071 18.676C15.191 18.698 15.512 18.589 15.695 18.398C15.878 18.207 15.759 18.227 15.547 18.257C15.335 18.287 15.174 18.325 15.029 18.294C14.9352 18.2809 14.8395 18.2931 14.752 18.3293C14.6644 18.3655 14.5882 18.4244 14.531 18.5ZM16.409 17.608C16.308 17.67 16.258 17.713 16.337 17.805C16.416 17.897 16.457 17.854 16.55 17.8C16.643 17.747 16.684 17.67 16.631 17.602C16.577 17.537 16.509 17.547 16.409 17.608ZM16.907 17.451C16.805 17.453 16.813 17.517 16.827 17.567C16.841 17.618 16.854 17.649 16.937 17.648C17.02 17.646 17.032 17.627 17.005 17.544C16.978 17.462 16.971 17.449 16.907 17.451ZM17.215 17.539C17.218 17.655 17.198 17.648 17.313 17.665C17.428 17.682 17.467 17.675 17.47 17.566C17.474 17.458 17.479 17.419 17.345 17.415C17.213 17.412 17.214 17.456 17.215 17.539ZM17.69 17.631C17.657 17.723 17.61 17.799 17.752 17.853C17.893 17.908 17.899 17.869 17.941 17.747C17.983 17.625 17.988 17.567 17.879 17.537C17.77 17.508 17.732 17.515 17.69 17.631ZM18.195 17.665C18.1801 17.746 18.1583 17.8256 18.13 17.903C18.188 17.927 18.265 17.957 18.324 17.994C18.382 18.031 18.463 17.927 18.435 17.832C18.407 17.737 18.302 17.586 18.195 17.665ZM18.793 16.139C18.775 16.203 18.716 16.415 18.692 16.473C18.859 16.514 18.987 16.537 19.102 16.528C19.217 16.519 19.401 16.484 19.491 16.5C19.58 16.517 19.629 16.427 19.48 16.315C19.331 16.204 19.241 16.187 19.145 16.188C19.05 16.191 18.887 16.074 18.793 16.139ZM19.429 16.929C19.315 16.911 19.252 17.003 19.331 17.065C19.409 17.127 19.51 17.099 19.521 17.042C19.533 16.985 19.538 16.946 19.429 16.929ZM19.685 16.898C19.692 16.955 19.707 17.057 19.708 17.102C19.793 17.183 19.881 17.098 19.972 17.179C20.063 17.26 20.13 17.176 20.148 17.092C20.166 17.009 20.177 16.964 20.101 16.966C19.934 16.969 19.823 16.825 19.685 16.898ZM17.874 14.934C17.894 14.978 17.947 15.079 17.949 15.13C18.026 15.179 18.207 15.232 18.256 15.142C18.305 15.051 18.323 15.013 18.239 14.97C18.154 14.928 17.972 14.772 17.874 14.934ZM18.56 15.092C18.505 15.154 18.549 15.188 18.627 15.231C18.705 15.274 18.761 15.203 18.753 15.145C18.745 15.087 18.641 15 18.56 15.092ZM16.04 19.437C16.098 19.489 16.145 19.563 16.13 19.647C16.115 19.733 16.167 19.766 16.227 19.791C16.287 19.814 16.444 19.962 16.474 19.802C16.505 19.639 16.371 19.387 16.277 19.372C16.184 19.356 16.141 19.357 16.097 19.307C16.053 19.257 15.927 19.337 16.04 19.437ZM21.285 18.762C21.245 18.907 21.089 19.224 20.989 19.287C20.836 19.214 20.553 19.151 20.526 19.067C20.582 18.913 20.637 18.784 20.68 18.69C20.855 18.652 21.136 18.637 21.285 18.762ZM20.326 18.544C20.3083 18.6954 20.2748 18.8446 20.226 18.989C20.048 19.01 19.621 18.926 19.477 18.98C19.483 18.861 19.479 18.707 19.512 18.629C19.784 18.624 20.035 18.448 20.326 18.544Z" fill="#EEEEEE"/>
</svg>
