<svg width="36" height="36" viewBox="0 0 36 36" fill="none" xmlns="http://www.w3.org/2000/svg">
<path d="M36 27C36 28.0609 35.5786 29.0783 34.8284 29.8284C34.0783 30.5786 33.0609 31 32 31H4C2.93913 31 1.92172 30.5786 1.17157 29.8284C0.421427 29.0783 0 28.0609 0 27V9C0 7.93913 0.421427 6.92172 1.17157 6.17157C1.92172 5.42143 2.93913 5 4 5H32C33.0609 5 34.0783 5.42143 34.8284 6.17157C35.5786 6.92172 36 7.93913 36 9V27Z" fill="#DE2910"/>
<path d="M11.136 8.977L11.872 9.333L12.461 8.767L12.35 9.577L13.07 9.963L12.266 10.107L12.122 10.911L11.736 10.191L10.926 10.302L11.492 9.713L11.136 8.977ZM15.801 11.918L15.445 12.653L16.011 13.243L15.202 13.131L14.816 13.852L14.672 13.047L13.867 12.903L14.588 12.517L14.476 11.708L15.066 12.274L15.801 11.918ZM14.844 15.697L15.112 16.469L15.929 16.486L15.278 16.979L15.515 17.762L14.844 17.295L14.173 17.762L14.409 16.979L13.758 16.486L14.575 16.469L14.844 15.697ZM11.136 18.977L11.872 19.333L12.461 18.767L12.35 19.577L13.07 19.963L12.266 20.107L12.122 20.911L11.736 20.191L10.926 20.302L11.492 19.713L11.136 18.977ZM7 10.951L7.929 13.622L10.755 13.68L8.502 15.388L9.321 18.094L7 16.479L4.679 18.094L5.498 15.388L3.245 13.68L6.071 13.622L7 10.951Z" fill="#FFDE02"/>
</svg>
