<svg width="300" height="159" viewBox="0 0 300 159" fill="none" xmlns="http://www.w3.org/2000/svg">
<g clip-path="url(#clip0_107_23)">
<path d="M0 0.552002H300V158.447H0V0.552002Z" fill="white"/>
<path d="M0 0.552002H300V12.698H0V0.552002ZM0 24.844H300V36.99H0V24.844ZM0 49.135H300V61.281H0V49.135ZM0 73.427H300V85.573H0V73.427ZM0 97.718H300V109.864H0V97.718ZM0 122.01H300V134.156H0V122.01ZM0 146.301H300V158.447H0V146.301Z" fill="#B22234"/>
<path d="M0 0.552002H120V85.572H0V0.552002Z" fill="#3C3B6E"/>
<path d="M5.63794 7.45399L8.49694 9.53099L7.40494 12.892L10.2629 10.815L13.1219 12.892L12.0299 9.53099L14.8879 7.45399H11.3549L10.2629 4.09399L9.17094 7.45399H5.63794ZM25.5329 7.45399L28.3909 9.53099L27.2989 12.892L30.1579 10.815L33.0169 12.892L31.9249 9.53099L34.7829 7.45399H31.2499L30.1579 4.09399L29.0659 7.45399H25.5329ZM45.4279 7.45399L48.2859 9.53099L47.1939 12.892L50.0529 10.815L52.9109 12.892L51.8189 9.53099L54.6779 7.45399H51.1449L50.0529 4.09399L48.9609 7.45399H45.4279ZM65.3229 7.45399L68.1809 9.53099L67.0889 12.892L69.9479 10.815L72.8059 12.892L71.7139 9.53099L74.5729 7.45399H71.0389L69.9479 4.09399L68.8559 7.45399H65.3229ZM85.2169 7.45399L88.0759 9.53099L86.9839 12.892L89.8419 10.815L92.7009 12.892L91.6089 9.53099L94.4669 7.45399H90.9339L89.8419 4.09399L88.7499 7.45399H85.2169ZM105.112 7.45399L107.97 9.53099L106.878 12.892L109.737 10.815L112.595 12.892L111.503 9.53099L114.362 7.45399H110.829L109.737 4.09399L108.645 7.45399H105.112ZM15.5849 15.981L18.4439 18.058L17.3519 21.418L20.2109 19.341L23.0689 21.418L21.9769 18.058L24.8359 15.981H21.3019L20.2109 12.62L19.1189 15.981H15.5849ZM35.4799 15.981L38.3389 18.058L37.2469 21.418L40.1049 19.341L42.9639 21.418L41.8719 18.058L44.7299 15.981H41.1969L40.1049 12.62L39.0129 15.981H35.4799ZM55.3749 15.981L58.2339 18.058L57.1419 21.418L59.9999 19.341L62.8589 21.418L61.7669 18.058L64.6249 15.981H61.0919L59.9999 12.62L58.9079 15.981H55.3749ZM75.2699 15.981L78.1279 18.058L77.0359 21.418L79.8949 19.341L82.7529 21.418L81.6609 18.058L84.5199 15.981H80.9869L79.8949 12.62L78.8029 15.981H75.2699ZM95.1639 15.981L98.0229 18.058L96.9309 21.418L99.7889 19.341L102.648 21.418L101.556 18.058L104.414 15.981H100.881L99.7889 12.62L98.6979 15.981H95.1639ZM5.63794 24.507L8.49694 26.584L7.40494 29.945L10.2629 27.868L13.1219 29.945L12.0299 26.584L14.8879 24.507H11.3549L10.2629 21.147L9.17094 24.507H5.63794ZM25.5329 24.507L28.3909 26.584L27.2989 29.945L30.1579 27.868L33.0169 29.945L31.9249 26.584L34.7829 24.507H31.2499L30.1579 21.147L29.0659 24.507H25.5329ZM45.4279 24.507L48.2859 26.584L47.1939 29.945L50.0529 27.868L52.9109 29.945L51.8189 26.584L54.6779 24.507H51.1449L50.0529 21.147L48.9609 24.507H45.4279ZM65.3229 24.507L68.1809 26.584L67.0889 29.945L69.9479 27.868L72.8059 29.945L71.7139 26.584L74.5729 24.507H71.0389L69.9479 21.147L68.8559 24.507H65.3229ZM85.2169 24.507L88.0759 26.584L86.9839 29.945L89.8419 27.868L92.7009 29.945L91.6089 26.584L94.4669 24.507H90.9339L89.8419 21.147L88.7499 24.507H85.2169ZM105.112 24.507L107.97 26.584L106.878 29.945L109.737 27.868L112.595 29.945L111.503 26.584L114.362 24.507H110.829L109.737 21.147L108.645 24.507H105.112ZM15.8309 33.062L18.6889 35.139L17.5979 38.499L20.4559 36.422L23.3149 38.499L22.2229 35.138L25.0809 33.062H21.5479L20.4559 29.701L19.3639 33.062H15.8309ZM35.7259 33.062L38.5839 35.139L37.4919 38.499L40.3509 36.422L43.2089 38.499L42.1169 35.138L44.9759 33.062H41.4429L40.3509 29.701L39.2589 33.062H35.7259ZM55.6209 33.062L58.4789 35.139L57.3869 38.499L60.2459 36.422L63.1039 38.499L62.0119 35.138L64.8709 33.062H61.3369L60.2459 29.701L59.1539 33.062H55.6209ZM75.5149 33.062L78.3739 35.139L77.2819 38.499L80.1399 36.422L82.9989 38.499L81.9069 35.138L84.7649 33.062H81.2319L80.1399 29.701L79.0479 33.062H75.5149ZM95.4099 33.062L98.2679 35.139L97.1759 38.499L100.035 36.422L102.893 38.499L101.801 35.138L104.66 33.062H101.127L100.035 29.701L98.9429 33.062H95.4099ZM5.93994 41.517L8.79894 43.593L7.70694 46.954L10.5649 44.877L13.4239 46.954L12.3319 43.593L15.1899 41.517H11.6569L10.5649 38.156L9.47294 41.517H5.93994ZM25.8349 41.517L28.6929 43.593L27.6009 46.954L30.4599 44.877L33.3179 46.954L32.2269 43.593L35.0849 41.517H31.5519L30.4599 38.156L29.3679 41.517H25.8349ZM45.7299 41.517L48.5879 43.593L47.4959 46.954L50.3549 44.877L53.2129 46.954L52.1209 43.593L54.9799 41.517H51.4469L50.3549 38.156L49.2629 41.517H45.7299ZM65.6239 41.517L68.4829 43.593L67.3909 46.954L70.2489 44.877L73.1079 46.954L72.0159 43.593L74.8749 41.517H71.3409L70.2489 38.156L69.1579 41.517H65.6239ZM85.5189 41.517L88.3769 43.593L87.2859 46.954L90.1439 44.877L93.0029 46.954L91.9109 43.593L94.7689 41.517H91.2359L90.1439 38.156L89.0519 41.517H85.5189ZM105.414 41.517L108.272 43.593L107.18 46.954L110.039 44.877L112.897 46.954L111.805 43.593L114.664 41.517H111.131L110.039 38.156L108.947 41.517H105.414ZM6.12694 58.299L8.98494 60.376L7.89294 63.737L10.7519 61.66L13.6099 63.737L12.5179 60.376L15.3769 58.299H11.8439L10.7519 54.939L9.65994 58.299H6.12694ZM26.0209 58.299L28.8799 60.376L27.7879 63.737L30.6459 61.66L33.5049 63.737L32.4129 60.376L35.2709 58.299H31.7379L30.6459 54.939L29.5539 58.299H26.0209ZM45.9159 58.299L48.7739 60.376L47.6829 63.737L50.5409 61.66L53.3999 63.737L52.3079 60.376L55.1659 58.299H51.6329L50.5409 54.939L49.4489 58.299H45.9159ZM65.8109 58.299L68.6689 60.376L67.5769 63.737L70.4359 61.66L73.2939 63.737L72.2029 60.376L75.0609 58.299H71.5279L70.4359 54.939L69.3439 58.299H65.8109ZM85.7049 58.299L88.5639 60.376L87.4719 63.737L90.3299 61.66L93.1889 63.737L92.0969 60.376L94.9559 58.299H91.4219L90.3299 54.939L89.2389 58.299H85.7049ZM105.6 58.299L108.458 60.376L107.367 63.737L110.225 61.66L113.084 63.737L111.992 60.376L114.85 58.299H111.317L110.225 54.939L109.133 58.299H105.6ZM5.88394 75.279L8.74194 77.356L7.64994 80.717L10.5089 78.64L13.3669 80.717L12.2749 77.356L15.1339 75.279H11.5999L10.5089 71.919L9.41694 75.279H5.88394ZM25.7779 75.279L28.6369 77.356L27.5449 80.717L30.4029 78.64L33.2619 80.717L32.1699 77.356L35.0279 75.279H31.4949L30.4029 71.919L29.3109 75.279H25.7779ZM45.6729 75.279L48.5309 77.356L47.4399 80.717L50.2979 78.64L53.1569 80.717L52.0649 77.356L54.9229 75.279H51.3899L50.2979 71.919L49.2059 75.279H45.6729ZM65.5679 75.279L68.4259 77.356L67.3339 80.717L70.1929 78.64L73.0509 80.717L71.9599 77.356L74.8179 75.279H71.2849L70.1929 71.919L69.1009 75.279H65.5679ZM85.4619 75.279L88.3209 77.356L87.2289 80.717L90.0869 78.64L92.9459 80.717L91.8539 77.356L94.7129 75.279H91.1789L90.0869 71.919L88.9959 75.279H85.4619ZM105.357 75.279L108.215 77.356L107.124 80.717L109.982 78.64L112.841 80.717L111.749 77.356L114.607 75.279H111.074L109.982 71.919L108.89 75.279H105.357ZM15.8899 49.824L18.7479 51.901L17.6569 55.261L20.5149 53.184L23.3739 55.261L22.2819 51.901L25.1399 49.824H21.6069L20.5149 46.463L19.4229 49.824H15.8899ZM35.7849 49.824L38.6429 51.901L37.5509 55.261L40.4099 53.184L43.2679 55.261L42.1769 51.901L45.0349 49.824H41.5019L40.4099 46.463L39.3179 49.824H35.7849ZM55.6799 49.824L58.5379 51.901L57.4459 55.261L60.3049 53.184L63.1629 55.261L62.0709 51.901L64.9299 49.824H61.3969L60.3049 46.463L59.2129 49.824H55.6799ZM75.5739 49.824L78.4329 51.901L77.3409 55.261L80.1989 53.184L83.0579 55.261L81.9659 51.901L84.8239 49.824H81.2909L80.1989 46.463L79.1069 49.824H75.5739ZM95.4689 49.824L98.3269 51.901L97.2349 55.261L100.094 53.184L102.952 55.261L101.861 51.901L104.719 49.824H101.186L100.094 46.463L99.0019 49.824H95.4689ZM15.8309 66.777L18.6899 68.854L17.5979 72.215L20.4559 70.138L23.3149 72.215L22.2229 68.854L25.0809 66.777H21.5479L20.4559 63.417L19.3639 66.777H15.8309ZM35.7259 66.777L38.5839 68.854L37.4919 72.215L40.3509 70.138L43.2099 72.215L42.1179 68.854L44.9759 66.777H41.4429L40.3509 63.417L39.2589 66.777H35.7259ZM55.6209 66.777L58.4789 68.854L57.3869 72.215L60.2459 70.138L63.1039 72.215L62.0119 68.854L64.8709 66.777H61.3379L60.2459 63.417L59.1539 66.777H55.6209ZM75.5149 66.777L78.3739 68.854L77.2819 72.215L80.1399 70.138L82.9989 72.215L81.9069 68.854L84.7649 66.777H81.2319L80.1399 63.417L79.0479 66.777H75.5149ZM95.4099 66.777L98.2679 68.854L97.1759 72.215L100.035 70.138L102.893 72.215L101.802 68.854L104.66 66.777H101.127L100.035 63.417L98.9429 66.777H95.4099Z" fill="white"/>
</g>
<defs>
<clipPath id="clip0_107_23">
<rect width="300" height="159" fill="white"/>
</clipPath>
</defs>
</svg>
